Coordinates
version=1
nRows=12
nColumns=46
inDegrees=yes

Units are S.I. units (second, meters, Newtons, ...)
Angles are in degrees.

endheader
time	pelvis_tilt	pelvis_list	pelvis_rotation	pelvis_tx	pelvis_ty	pelvis_tz	bb_angle	bb_tx	bb_ty	bb_tz	hip_flexion_r	hip_adduction_r	hip_rotation_r	knee_angle_r	knee_angle_r_beta	ankle_angle_r	subtalar_angle_r	mtp_angle_r	crank_angle_r	hip_flexion_l	hip_adduction_l	hip_rotation_l	knee_angle_l	knee_angle_l_beta	ankle_angle_l	subtalar_angle_l	mtp_angle_l	crank_angle_l	lumbar_extension	lumbar_bending	lumbar_rotation	arm_flex_r	arm_add_r	arm_rot_r	elbow_flex_r	pro_sup_r	wrist_flex_r	wrist_dev_r	arm_flex_l	arm_add_l	arm_rot_l	elbow_flex_l	pro_sup_l	wrist_flex_l	wrist_dev_l
      2.50500000	    -19.45386922	      3.67240846	     13.09152422	      0.02154388	      1.01494359	     -0.21837091	      0.00000000	      0.50000000	      0.00000000	      0.25000000	     50.42489328	    -15.04477584	     -1.40100449	     41.91937637	      0.73163114	    -31.94090450	    -13.83072534	      0.00000000	      0.00000000	     95.38485339	      4.26191715	     -0.93523438	    102.10192371	      1.78201474	     24.45875952	      2.58903860	      0.00000000	      0.00000000	    -48.92339367	     -0.86205296	    -12.30597373	     89.04755711	    -13.02152564	     28.22426044	     31.86359282	     36.90646436	      0.00000000	      0.00000000	     89.76808765	     -1.95350568	     29.52312836	     48.82087776	     30.12352718	      0.00000000	      0.00000000
      2.51000000	    -19.63817779	      3.59057552	     13.11105597	      0.02156765	      1.01515225	     -0.21867561	      0.00000000	      0.50000000	      0.00000000	      0.25000000	     50.70121163	    -14.97013747	     -1.30612737	     42.44081766	      0.74073201	    -31.91232873	    -13.98721610	      0.00000000	      0.00000000	     95.42115471	      4.55564797	     -0.83440011	    101.45302943	      1.77068940	     24.48604236	      2.17647021	      0.00000000	      0.00000000	    -48.99421227	     -0.91323908	    -12.33235645	     89.00299128	    -12.67883253	     26.14143274	     32.16658877	     37.14477885	      0.00000000	      0.00000000	     89.76874230	     -1.93809639	     29.20988654	     49.04284033	     31.74296794	      0.00000000	      0.00000000
      2.51500000	    -19.79588958	      3.49849166	     13.11949460	      0.02169741	      1.01539560	     -0.21896621	      0.00000000	      0.50000000	      0.00000000	      0.25000000	     50.95049333	    -14.90101607	     -1.29772986	     42.97958419	      0.75013526	    -31.98127988	    -14.23780029	      0.00000000	      0.00000000	     95.42711790	      4.85214316	     -0.70427795	    100.81737230	      1.75959509	     24.45957094	      1.71635336	      0.00000000	      0.00000000	    -49.10463444	     -0.94668421	    -12.42747469	     88.97619910	    -12.58397487	     25.39751795	     32.70977951	     36.26602517	      0.00000000	      0.00000000	     89.76842498	     -2.21965271	     29.21966635	     49.99430308	     31.62195403	      0.00000000	      0.00000000
      2.52000000	    -19.97223316	      3.43249780	     13.08177040	      0.02188377	      1.01564862	     -0.21916099	      0.00000000	      0.50000000	      0.00000000	      0.25000000	     51.21372224	    -14.80339981	     -1.23175954	     43.51318351	      0.75944832	    -31.82138902	    -14.45406075	      0.00000000	      0.00000000	     95.42957303	      5.10475510	     -0.58335574	    100.15050312	      1.74795603	     24.38755211	      1.25086981	      0.00000000	      0.00000000	    -49.19520165	     -1.06695035	    -12.39365862	     88.92536472	    -12.54782691	     24.31402385	     33.20037558	     35.56826382	      0.00000000	      0.00000000	     89.76963097	     -2.19744055	     29.12273803	     50.48673773	     31.78466172	      0.00000000	      0.00000000
      2.52500000	    -20.12073988	      3.33606093	     13.03998744	      0.02213211	      1.01591457	     -0.21937996	      0.00000000	      0.50000000	      0.00000000	      0.25000000	     51.43288600	    -14.68367131	     -1.21734416	     44.03948312	      0.76863398	    -31.73741372	    -14.76987669	      0.00000000	      0.00000000	     95.41696279	      5.35807031	     -0.43338023	     99.51401549	      1.73684722	     24.28058464	      0.73411474	      0.00000000	      0.00000000	    -49.32756753	     -1.12431663	    -12.43189402	     88.89500191	    -12.53967823	     24.09364071	     33.65429481	     35.20512131	      0.00000000	      0.00000000	     89.76820441	     -2.46528777	     29.15530075	     51.36576970	     32.11695301	      0.00000000	      0.00000000
      2.53000000	    -20.31406029	      3.30274097	     12.94561915	      0.02232754	      1.01609861	     -0.21957469	      0.00000000	      0.50000000	      0.00000000	      0.25000000	     51.71884030	    -14.55994260	     -1.03434910	     44.58265778	      0.77811417	    -31.54840065	    -14.93028694	      0.00000000	      0.00000000	     95.42211299	      5.59329101	     -0.31699829	     98.84789398	      1.72522121	     24.15523945	      0.22498039	      0.00000000	      0.00000000	    -49.41650618	     -1.28096644	    -12.47295978	     88.85699354	    -12.51873265	     23.64351939	     33.97026250	     35.27791579	      0.00000000	      0.00000000	     89.76742263	     -2.66748649	     29.18772849	     52.11918460	     32.55997595	      0.00000000	      0.00000000
      2.53500000	    -20.42101083	      3.32659593	     12.96916196	      0.02266276	      1.01661159	     -0.21996316	      0.00000000	      0.50000000	      0.00000000	      0.25000000	     51.85994648	    -14.61205373	     -1.02907370	     45.09589889	      0.78707191	    -31.53192189	    -15.31388493	      0.00000000	      0.00000000	     95.27374558	      5.98838889	     -0.24255475	     98.11909832	      1.71250132	     23.98770507	     -0.49702934	      0.00000000	      0.00000000	    -49.69847091	     -1.40493882	    -12.38939430	     88.53004317	    -13.05151185	     22.44484124	     35.69078468	     35.76708279	      0.00000000	      0.00000000	     89.77274445	     -2.37838069	     28.83755785	     52.60379737	     33.05655920	      0.00000000	      0.00000000
      2.54000000	    -20.65244423	      3.15220709	     12.66562722	      0.02306950	      1.01643119	     -0.21965052	      0.00000000	      0.50000000	      0.00000000	      0.25000000	     52.23007178	    -14.17985613	     -0.73210775	     45.69676153	      0.79755895	    -30.97781627	    -15.19656036	      0.00000000	      0.00000000	     95.37812273	      5.95534237	      0.05476667	     97.57103530	      1.70293582	     23.87116449	     -0.93427000	      0.00000000	      0.00000000	    -49.64080007	     -1.62217049	    -12.37192479	     88.73928910	    -12.65408860	     22.66756139	     34.62859115	     35.92193473	      0.00000000	      0.00000000	     89.76768059	     -3.00711635	     29.34717720	     53.69144432	     32.62785340	      0.00000000	      0.00000000
      2.54500000	    -20.78664743	      3.05831443	     12.48968349	      0.02356383	      1.01662330	     -0.21966344	      0.00000000	      0.50000000	      0.00000000	      0.25000000	     52.43434819	    -13.94589179	     -0.60162507	     46.22785403	      0.80682826	    -30.82735018	    -15.47817242	      0.00000000	      0.00000000	     95.31531966	      6.06417508	      0.23975617	     96.95703394	      1.69221948	     23.71143603	     -1.39862361	      0.00000000	      0.00000000	    -49.79712793	     -1.76456466	    -12.17975190	     88.65272828	    -12.82341785	     21.90729522	     35.37142189	     36.20647605	      0.00000000	      0.00000000	     89.76619813	     -3.01777188	     29.19244744	     54.41978693	     32.80566367	      0.00000000	      0.00000000
      2.55000000	    -20.91613876	      3.01272424	     12.28113525	      0.02393785	      1.01676085	     -0.21977876	      0.00000000	      0.50000000	      0.00000000	      0.25000000	     52.68099728	    -13.76757357	     -0.45895548	     46.80417889	      0.81688703	    -30.55415830	    -15.56432981	      0.00000000	      0.00000000	     95.21168953	      6.22472373	      0.49176525	     96.31175912	      1.68095730	     23.62797313	     -1.88357660	      0.00000000	      0.00000000	    -49.98604370	     -2.00264354	    -12.09828910	     88.57558909	    -12.95468370	     21.12445092	     35.98317140	     36.43155681	      0.00000000	      0.00000000	     89.76615473	     -3.07166659	     29.21486431	     55.15992300	     32.96035332	      0.00000000	      0.00000000
      2.55500000	    -21.18414687	      2.90954866	     11.94691283	      0.02439677	      1.01647338	     -0.21989248	      0.00000000	      0.50000000	      0.00000000	      0.25000000	     53.12116591	    -13.45561141	     -0.17735822	     47.44928659	      0.82814628	    -30.10083434	    -15.49854381	      0.00000000	      0.00000000	     95.28043611	      6.24752888	      0.73031158	     95.70432841	      1.67035564	     23.51471120	     -2.43213242	      0.00000000	      0.00000000	    -49.91087642	     -2.22562597	    -11.88826112	     88.54536079	    -12.88392850	     20.45742066	     36.05422714	     36.49519930	      0.00000000	      0.00000000	     89.76478586	     -3.34790341	     29.46887271	     55.87051461	     32.84968108	      0.00000000	      0.00000000
      2.56000000	    -21.27188792	      2.81309184	     11.72674063	      0.02499305	      1.01661300	     -0.21981004	      0.00000000	      0.50000000	      0.00000000	      0.25000000	     53.31606600	    -13.22442446	     -0.15382712	     48.06609341	      0.83891159	    -29.87410939	    -15.85694674	      0.00000000	      0.00000000	     95.12576677	      6.33209225	      0.99318620	     95.09014167	      1.65963606	     23.41301989	     -2.82891684	      0.00000000	      0.00000000	    -50.13016565	     -2.48775154	    -11.54416214	     88.21464098	    -13.29829063	     18.80653946	     37.68844532	     36.95752622	      0.00000000	      0.00000000	     89.76866022	     -2.95777977	     29.38878472	     55.99985694	     33.47204801	      0.00000000	      0.00000000
